<?xml version="1.0" standalone="no"?>
<!DOCTYPE svg PUBLIC "-//W3C//DTD SVG 1.1//EN" "http://www.w3.org/Graphics/SVG/1.1/DTD/svg11.dtd">
<svg width="100%" height="100%" viewBox="0 0 251 143" version="1.1" xmlns="http://www.w3.org/2000/svg" xmlns:xlink="http://www.w3.org/1999/xlink" xml:space="preserve" style="fill-rule:evenodd;clip-rule:evenodd;stroke-linejoin:round;stroke-miterlimit:1.41421;">
    <g id="path3709" transform="matrix(0.672848,0,0,0.672848,2.76005,0.987243)">
        <path d="M259.355,15.996C251.943,9.826 240.533,5.695 225.153,3.588L213.851,39.523C213.607,40.841 213.187,42.338 212.536,44.063C211.383,46.946 209.994,49.321 208.362,51.19C206.728,53.064 204.899,54.525 202.873,55.59C200.845,56.649 198.641,57.38 196.259,57.783C193.877,58.183 191.412,58.309 188.866,58.161C186.317,58.013 184.149,57.666 182.365,57.119C180.579,56.573 178.937,55.667 177.44,54.399C176.333,53.154 175.689,51.521 175.513,49.497C175.336,47.473 175.826,44.97 176.984,41.988C178.019,39.396 179.329,37.136 180.917,35.217C182.504,33.296 184.36,31.806 186.482,30.75C188.509,29.691 190.688,28.982 193.021,28.625C195.348,28.271 197.936,28.177 200.777,28.342C203.129,28.481 205.319,28.827 207.351,29.39C208.315,29.655 209.159,30.003 209.893,30.423L218.57,2.832C216.428,2.63 214.237,2.453 211.961,2.322C190.06,1.043 171.653,3.573 156.732,9.898C141.814,16.228 131.867,25.613 126.899,38.052C125.408,41.866 124.607,45.46 124.489,48.837L124.479,48.832C123.053,73.295 138.774,87.077 148.486,93.205C152.383,95.814 155.848,97.106 155.848,97.106L160.299,82.881L161.615,79.385C167.474,80.493 173.99,81.264 181.188,81.683C203.241,82.969 221.727,80.451 236.646,74.119C251.562,67.794 261.426,58.481 266.237,46.177C271.043,33.882 268.751,23.82 259.355,15.996L259.355,15.996Z" style="fill:url(#_Linear1);fill-rule:nonzero;"/>
    </g>
    <g id="path3716" transform="matrix(0.672848,0,0,0.672848,2.76005,0.987243)">
        <path d="M271.531,141.499C269.02,149.217 263.301,155.306 254.375,159.769C245.449,164.232 234.152,166.463 220.484,166.463C207,166.463 197.192,164.255 191.054,159.837C184.918,155.422 183.15,149.309 185.755,141.499L193.285,118.208L218.948,118.208L211.696,141.359C210.765,144.242 210.464,146.637 210.79,148.542C211.116,150.449 211.836,151.959 212.952,153.075C214.346,154.188 215.902,154.955 217.624,155.374C219.344,155.793 221.412,156.003 223.831,156.003C226.248,156.003 228.573,155.748 230.805,155.234C233.036,154.724 235.08,153.911 236.943,152.796C238.801,151.68 240.451,150.194 241.894,148.333C243.334,146.474 244.52,144.147 245.451,141.359L252.983,118.208L278.646,118.208L271.531,141.499L271.531,141.499Z" style="fill:url(#_Linear2);fill-rule:nonzero;"/>
    </g>
    <g id="path3723" transform="matrix(0.672848,0,0,0.672848,2.76005,0.987243)">
        <path d="M88.875,142.404C91.385,134.687 89.618,128.596 83.574,124.133C77.53,119.67 67.675,117.439 54.007,117.439C40.524,117.439 29.321,119.649 20.396,124.064C11.468,128.481 5.703,134.594 3.101,142.404C0.591,150.124 2.379,156.19 8.471,160.605C14.56,165.023 24.393,167.231 37.969,167.231C51.544,167.231 62.795,165.023 71.722,160.605C80.646,156.19 86.364,150.124 88.875,142.404ZM62.793,142.544C61.862,145.522 60.724,147.844 59.376,149.518C58.027,151.193 56.33,152.634 54.286,153.841C52.518,154.957 50.521,155.724 48.289,156.143C46.057,156.562 43.826,156.77 41.593,156.77C38.896,156.77 36.594,156.54 34.69,156.074C32.783,155.609 31.273,154.818 30.157,153.703C28.947,152.587 28.251,151.077 28.065,149.17C27.877,147.266 28.205,145.056 29.042,142.545C29.971,139.665 31.203,137.27 32.738,135.362C34.272,133.458 35.967,131.945 37.828,130.829C39.966,129.714 42.034,128.947 44.035,128.528C46.034,128.109 48.242,127.901 50.66,127.901C53.076,127.901 55.263,128.158 57.215,128.668C59.168,129.18 60.701,129.993 61.818,131.108C62.933,132.224 63.607,133.713 63.839,135.571C64.07,137.431 63.722,139.756 62.793,142.544L62.793,142.544Z" style="fill:url(#_Linear3);fill-rule:nonzero;"/>
    </g>
    <g id="path3730" transform="matrix(0.672848,0,0,0.672848,2.76005,0.987243)">
        <path d="M312.14,128.807C315.068,128.109 321.181,127.761 330.479,127.761C335.312,127.761 339.985,128.248 344.497,129.226C349.005,130.202 353.539,131.435 358.095,132.922L362,121.066C359.302,120.322 355.375,119.579 350.213,118.835C345.054,118.091 339.544,117.719 333.687,117.719C316.113,117.719 303.282,119.232 295.194,122.252C287.105,125.274 282.315,129.064 280.828,133.618C279.713,137.058 280.48,139.964 283.13,142.335C285.78,144.706 290.452,146.45 297.146,147.564C299.657,148.031 303.77,148.402 309.489,148.681C315.207,148.96 318.949,149.238 320.717,149.517C324.434,149.89 326.922,150.354 328.178,150.913C329.432,151.471 329.873,152.307 329.503,153.424C329.036,154.727 327.527,155.703 324.97,156.352C322.411,157.004 318.67,157.329 313.743,157.329C312.973,157.329 312.23,157.326 311.502,157.322C309.656,157.221 307.644,157.05 305.711,156.846C303.651,156.626 301.593,156.361 299.549,156.051C295.46,155.431 291.417,154.632 287.491,153.612C283.57,152.59 279.757,151.345 276.231,149.799C275.757,149.591 275.299,149.366 274.837,149.145C272.361,153.124 268.932,156.596 264.567,159.541C266.826,160.626 269.106,161.517 271.374,162.283C275.894,163.789 280.408,164.803 284.899,165.549C289.393,166.29 293.868,166.752 298.33,167.021C300.561,167.154 302.789,167.236 305.021,167.269C306.987,167.295 308.903,167.289 310.923,167.224C323.139,167.152 333.241,165.694 341.217,162.838C349.397,159.909 354.279,156.028 355.861,151.193C356.977,147.844 356.302,145.055 353.84,142.824C351.374,140.593 347.027,138.967 340.799,137.942C337.916,137.571 335.031,137.223 332.152,136.896C329.268,136.572 326.619,136.268 324.201,135.99C314.624,135.34 309.277,134.735 308.162,134.177C307.046,133.619 306.674,132.783 307.046,131.666C307.513,130.457 309.21,129.503 312.14,128.807L312.14,128.807Z" style="fill:url(#_Linear4);fill-rule:nonzero;"/>
    </g>
    <g id="path3737" transform="matrix(0.672848,0,0,0.672848,2.76005,0.987243)">
        <path d="M174.838,124.204C168.747,119.789 158.914,117.579 145.339,117.579C131.762,117.579 120.513,119.789 111.588,124.204C102.662,128.621 97.188,134.619 94.677,142.335L94.572,142.684L81.88,181.874C76.62,199.505 99.406,206.486 99.406,206.486L106.986,181.874L107.642,179.768C108.234,177.786 108.834,175.804 109.423,173.82L111.109,168.289C111.712,166.457 112.316,164.627 112.959,162.808L116.938,151.933L118.931,146.497L120.36,142.779C120.411,142.607 120.459,142.44 120.515,142.265C121.351,139.756 122.468,137.547 123.862,135.641C125.258,133.737 126.931,132.224 128.883,131.108C130.742,129.993 132.765,129.204 134.95,128.737C137.133,128.273 139.575,128.041 142.272,128.041C144.503,128.041 146.597,128.249 148.549,128.668C150.501,129.087 151.987,129.854 153.012,130.969C154.313,132.178 155.08,133.619 155.312,135.292C155.543,136.967 155.195,139.291 154.266,142.266C153.335,145.056 152.15,147.382 150.709,149.24C149.267,151.102 147.618,152.588 145.758,153.704C143.897,154.819 141.853,155.635 139.622,156.144C137.391,156.656 135.064,156.911 132.649,156.911C130.23,156.911 128.162,156.703 126.442,156.284C124.721,155.865 123.116,155.098 121.63,153.982C121.518,153.87 121.429,153.735 121.325,153.616L117.651,164.274C117.445,164.887 117.248,165.502 117.05,166.116C120.529,166.824 124.557,167.246 129.161,167.372C142.829,167.372 154.126,165.141 163.054,160.678C171.98,156.214 177.697,150.126 180.208,142.407C182.719,134.688 180.926,128.621 174.838,124.204L174.838,124.204Z" style="fill:url(#_Linear5);fill-rule:nonzero;"/>
    </g>
    <defs>
        <linearGradient id="_Linear1" x1="0" y1="0" x2="1" y2="0" gradientUnits="userSpaceOnUse" gradientTransform="matrix(5.82365e-15,-95.1074,95.1074,5.82365e-15,196.532,97.1074)"><stop offset="0%" style="stop-color:rgb(142,142,142);stop-opacity:1"/><stop offset="0%" style="stop-color:rgb(142,142,142);stop-opacity:1"/><stop offset="100%" style="stop-color:rgb(181,181,181);stop-opacity:1"/></linearGradient>
        <linearGradient id="_Linear2" x1="0" y1="0" x2="1" y2="0" gradientUnits="userSpaceOnUse" gradientTransform="matrix(2.95476e-15,48.2549,-48.2549,2.95476e-15,231.618,118.208)"><stop offset="0%" style="stop-color:rgb(73,71,72);stop-opacity:1"/><stop offset="0%" style="stop-color:rgb(73,71,72);stop-opacity:1"/><stop offset="100%" style="stop-color:black;stop-opacity:1"/></linearGradient>
        <linearGradient id="_Linear3" x1="0" y1="0" x2="1" y2="0" gradientUnits="userSpaceOnUse" gradientTransform="matrix(3.04887e-15,49.7919,-49.7919,3.04887e-15,45.9897,117.439)"><stop offset="0%" style="stop-color:rgb(73,71,72);stop-opacity:1"/><stop offset="0%" style="stop-color:rgb(73,71,72);stop-opacity:1"/><stop offset="100%" style="stop-color:black;stop-opacity:1"/></linearGradient>
        <linearGradient id="_Linear4" x1="0" y1="0" x2="1" y2="0" gradientUnits="userSpaceOnUse" gradientTransform="matrix(3.03488e-15,49.5634,-49.5634,3.03488e-15,313.285,117.719)"><stop offset="0%" style="stop-color:rgb(73,71,72);stop-opacity:1"/><stop offset="0%" style="stop-color:rgb(73,71,72);stop-opacity:1"/><stop offset="100%" style="stop-color:black;stop-opacity:1"/></linearGradient>
        <linearGradient id="_Linear5" x1="0" y1="0" x2="1" y2="0" gradientUnits="userSpaceOnUse" gradientTransform="matrix(5.444e-15,88.9072,-88.9072,5.444e-15,131.199,117.579)"><stop offset="0%" style="stop-color:rgb(73,71,72);stop-opacity:1"/><stop offset="0%" style="stop-color:rgb(73,71,72);stop-opacity:1"/><stop offset="100%" style="stop-color:black;stop-opacity:1"/></linearGradient>
    </defs>
</svg>
