<?xml version="1.0" standalone="no"?>
<!DOCTYPE svg PUBLIC "-//W3C//DTD SVG 1.1//EN" "http://www.w3.org/Graphics/SVG/1.1/DTD/svg11.dtd">
<svg width="100%" height="100%" viewBox="0 0 78 50" version="1.1" xmlns="http://www.w3.org/2000/svg" xmlns:xlink="http://www.w3.org/1999/xlink" xml:space="preserve" style="fill-rule:evenodd;clip-rule:evenodd;stroke-linejoin:round;stroke-miterlimit:1.41421;">
    <g transform="matrix(0.973547,0,0,0.973547,1.03167,0.661326)">
        <path d="M53.135,0C66.858,0 78,11.202 78,25C78,38.798 66.858,50 53.135,50C39.411,50 28.269,38.798 28.269,25C28.269,11.202 39.411,0 53.135,0ZM53.135,3.967C64.681,3.967 74.055,13.391 74.055,25C74.055,36.609 64.681,46.033 53.135,46.033C41.589,46.033 32.215,36.609 32.215,25C32.215,13.391 41.589,3.967 53.135,3.967Z" style="fill:black;"/>
    </g>
    <g transform="matrix(0.973547,0,0,0.973547,1.03167,0.661326)">
        <path d="M24.865,0C38.589,0 49.731,11.202 49.731,25C49.731,38.798 38.589,50 24.865,50C11.142,50 0,38.798 0,25C0,11.202 11.142,0 24.865,0ZM24.865,3.967C36.411,3.967 45.785,13.391 45.785,25C45.785,36.609 36.411,46.033 24.865,46.033C13.319,46.033 3.945,36.609 3.945,25C3.945,13.391 13.319,3.967 24.865,3.967Z" style="fill:black;"/>
    </g>
</svg>
